<?xml version="1.0" encoding="UTF-8" standalone="no"?>
<svg
   xmlns:dc="http://purl.org/dc/elements/1.1/"
   xmlns:cc="http://creativecommons.org/ns#"
   xmlns:rdf="http://www.w3.org/1999/02/22-rdf-syntax-ns#"
   xmlns:svg="http://www.w3.org/2000/svg"
   xmlns="http://www.w3.org/2000/svg"
   xmlns:sodipodi="http://sodipodi.sourceforge.net/DTD/sodipodi-0.dtd"
   xmlns:inkscape="http://www.inkscape.org/namespaces/inkscape"
   width="200"
   height="200"
   viewBox="0 0 52.916665 52.916668"
   version="1.1"
   id="svg8"
   inkscape:version="1.0.2-2 (e86c870879, 2021-01-15)"
   sodipodi:docname="logo.svg">
  <defs
     id="defs2" />
  <sodipodi:namedview
     id="base"
     pagecolor="#ffffff"
     bordercolor="#666666"
     borderopacity="1.0"
     inkscape:pageopacity="0.0"
     inkscape:pageshadow="2"
     inkscape:zoom="2.8"
     inkscape:cx="91.060408"
     inkscape:cy="97.967433"
     inkscape:document-units="mm"
     inkscape:current-layer="layer1"
     inkscape:document-rotation="0"
     showgrid="false"
     units="px"
     inkscape:window-width="1920"
     inkscape:window-height="991"
     inkscape:window-x="-9"
     inkscape:window-y="-9"
     inkscape:window-maximized="1" />
  <metadata
     id="metadata5">
    <rdf:RDF>
      <cc:Work
         rdf:about="">
        <dc:format>image/svg+xml</dc:format>
        <dc:type
           rdf:resource="http://purl.org/dc/dcmitype/StillImage" />
        <dc:title />
      </cc:Work>
    </rdf:RDF>
  </metadata>
  <g
     inkscape:label="Capa 1"
     inkscape:groupmode="layer"
     id="layer1">
    <ellipse
       style="fill:#210038;fill-opacity:1;stroke:#000000;stroke-width:0;stroke-linejoin:round;paint-order:markers stroke fill"
       id="path832"
       cx="26.458332"
       cy="26.458332"
       rx="26.458334"
       ry="26.458332" />
    <path
       style="fill:#fefefe;fill-opacity:1;stroke-width:0.0377483"
       d="m 17.272284,37.664108 c -0.356117,-0.0958 -0.549379,-0.196104 -0.835025,-0.433349 -0.29191,-0.242447 -0.414404,-0.452764 -0.471243,-0.809115 -0.07148,-0.448245 0.07221,-0.854594 0.407638,-1.152728 0.233497,-0.207528 0.434383,-0.299449 0.766734,-0.350833 0.506914,-0.07838 0.971349,0.06733 1.597656,0.501205 0.442402,0.306482 0.661604,0.423369 0.79506,0.423954 0.368765,0.0017 1.126038,-0.640759 2.01216,-1.706878 0.791175,-0.951882 2.150136,-2.864649 2.815014,-3.962188 0.210874,-0.348095 0.383405,-0.645348 0.383405,-0.660562 0,-0.107838 -1.308653,-4.453095 -1.409016,-4.678504 C 22.928332,23.9225 22.351656,23.3819 21.538793,23.151584 21.070676,23.01895 20.788748,22.992028 19.906304,22.99571 l -0.851299,0.0035 v -0.312466 -0.312467 l 0.731115,-0.114435 c 0.402112,-0.06295 1.578406,-0.24797 2.613988,-0.411179 l 1.882871,-0.296743 0.208244,0.191814 c 0.460065,0.423771 0.96322,1.077281 1.253745,1.628397 0.259098,0.491499 0.651529,1.593832 1.121525,3.150344 l 0.04768,0.157957 0.856642,-1.150216 c 0.97679,-1.311543 1.447032,-1.841927 2.148317,-2.423093 1.23948,-1.027172 2.030606,-1.447674 2.873244,-1.527191 0.40307,-0.03805 0.817009,0.0018 1.133062,0.109262 0.251435,0.08543 0.626923,0.361079 0.774391,0.568489 0.349036,0.490906 0.26432,1.322512 -0.165338,1.623017 -0.5917,0.413835 -1.210086,0.467805 -2.19924,0.191938 -1.076678,-0.300275 -1.292869,-0.298409 -1.846333,0.01594 -0.529405,0.30068 -1.381503,1.158685 -2.099925,2.114477 -0.522902,0.695676 -1.135102,1.612732 -1.128809,1.690925 0.01065,0.132393 1.570132,5.900044 1.755145,6.491316 0.223295,0.713614 0.350017,0.96639 0.585354,1.167628 0.30431,0.260218 0.574566,0.2438 1.093756,-0.06645 0.599667,-0.358338 1.349692,-1.123296 1.847312,-1.884089 l 0.228891,-0.349945 0.3031,0.14521 c 0.166702,0.07986 0.317471,0.156248 0.33504,0.169741 0.04632,0.03557 -0.58559,0.95709 -1.005529,1.466339 -0.645318,0.782561 -1.671201,1.706267 -2.400783,2.161667 -1.262652,0.788142 -2.287471,0.697312 -3.051254,-0.270431 -0.353921,-0.448435 -0.554793,-1.04642 -1.364784,-4.062917 -0.396318,-1.47594 -0.558939,-2.025984 -0.588894,-1.991859 -0.02276,0.02594 -0.353876,0.511319 -0.735808,1.078642 -0.695952,1.033771 -1.719761,2.429424 -2.25333,3.071732 -1.24946,1.504097 -2.277891,2.296489 -3.374053,2.599667 -0.39825,0.110148 -1.03893,0.130759 -1.362079,0.04381 z m 1.223422,-22.511874 c -0.290549,-0.04878 -0.598436,-0.379323 -0.609253,-0.654087 -0.0159,-0.404035 0.23848,-0.696502 0.677926,-0.779413 0.125483,-0.02367 3.2014,-0.03262 9.043674,-0.02628 l 8.853507,0.0096 0.19109,0.08356 c 0.124508,0.05443 0.235565,0.140936 0.318723,0.248248 0.112125,0.144685 0.127625,0.193488 0.127625,0.401603 0,0.198137 -0.01779,0.260768 -0.108738,0.382793 -0.05981,0.08025 -0.183887,0.19005 -0.275732,0.244013 l -0.166988,0.09812 -8.976619,0.0042 c -4.937142,0.0022 -9.020988,-0.0033 -9.075215,-0.0123 z"
       id="path867" />
    <rect
       style="fill:#fefefe;fill-opacity:1;stroke:#000000;stroke-width:0;stroke-linejoin:round;paint-order:markers stroke fill"
       id="rect869"
       width="19.674465"
       height="2.5644209"
       x="17.771402"
       y="13.218052"
       ry="1.2822105"
       rx="0" />
  </g>
</svg>
