<?xml version="1.0" encoding="UTF-8" standalone="no"?>
<svg
   xmlns:dc="http://purl.org/dc/elements/1.1/"
   xmlns:cc="http://creativecommons.org/ns#"
   xmlns:rdf="http://www.w3.org/1999/02/22-rdf-syntax-ns#"
   xmlns:svg="http://www.w3.org/2000/svg"
   xmlns="http://www.w3.org/2000/svg"
   xmlns:sodipodi="http://sodipodi.sourceforge.net/DTD/sodipodi-0.dtd"
   xmlns:inkscape="http://www.inkscape.org/namespaces/inkscape"
   width="200"
   height="200"
   viewBox="0 0 52.916665 52.916668"
   version="1.1"
   id="svg8"
   inkscape:version="1.0.2-2 (e86c870879, 2021-01-15)"
   sodipodi:docname="RobloxIcon.svg">
  <defs
     id="defs2" />
  <sodipodi:namedview
     id="base"
     pagecolor="#ffffff"
     bordercolor="#666666"
     borderopacity="1.0"
     inkscape:pageopacity="0.0"
     inkscape:pageshadow="2"
     inkscape:zoom="1.979899"
     inkscape:cx="71.911904"
     inkscape:cy="123.04904"
     inkscape:document-units="px"
     inkscape:current-layer="layer1"
     inkscape:document-rotation="0"
     showgrid="false"
     units="px"
     inkscape:window-width="1920"
     inkscape:window-height="991"
     inkscape:window-x="-9"
     inkscape:window-y="-9"
     inkscape:window-maximized="1" />
  <metadata
     id="metadata5">
    <rdf:RDF>
      <cc:Work
         rdf:about="">
        <dc:format>image/svg+xml</dc:format>
        <dc:type
           rdf:resource="http://purl.org/dc/dcmitype/StillImage" />
        <dc:title />
      </cc:Work>
    </rdf:RDF>
  </metadata>
  <g
     inkscape:label="Capa 1"
     inkscape:groupmode="layer"
     id="layer1">
    <path
       style="fill:#000000;stroke-width:0.0105322"
       d="M 23.900498,34.031928 C 19.48937,32.897335 15.87908,31.968829 15.877632,31.96858 c -0.0014,-2.48e-4 -0.0026,-0.0076 -0.0026,-0.01631 0,-0.0132 4.10585,-16.000103 4.124633,-16.060039 0.0048,-0.01546 0.0132,-0.01843 0.03929,-0.014 0.02996,0.0051 15.994186,4.106882 16.040576,4.121409 0.01546,0.0048 0.01844,0.0132 0.014,0.03929 -0.005,0.02951 -4.106786,15.993979 -4.121015,16.039376 -0.0033,0.01063 -0.01551,0.01803 -0.02876,0.01748 -0.01264,-5.27e-4 -3.632092,-0.929257 -8.043221,-2.06385 z m 3.272517,-6.210834 c 0.01718,-0.06806 0.196239,-0.769552 0.397916,-1.558861 0.201678,-0.78931 0.364758,-1.436827 0.362401,-1.438926 -0.01289,-0.01148 -3.111254,-0.795275 -3.117374,-0.788604 -0.0077,0.0084 -0.801801,3.111618 -0.79708,3.114903 0.0051,0.0036 3.099124,0.793663 3.11105,0.794454 0.0065,4.32e-4 0.02585,-0.05468 0.04309,-0.122966 z"
       id="path845" />
  </g>
</svg>
